<svg xmlns="http://www.w3.org/2000/svg" xmlns:xlink="http://www.w3.org/1999/xlink" preserveAspectRatio="xMidYMid" width="350" height="290" viewBox="0 0 350 290">
  <defs>
    <style>
      .cls-1 {
        fill: #f28b14;
      }

      .cls-2 {
        fill: #feb856;
      }

      .cls-3 {
        fill: #5abefd;
      }

      .cls-3, .cls-7 {
        fill-rule: evenodd;
      }

      .cls-4, .cls-7 {
        fill: #464646;
      }

      .cls-5, .cls-6 {
        stroke: #464646;
        stroke-width: 3px;
      }

      .cls-5 {
        fill: none;
      }

      .cls-6 {
        fill: #fff;
      }
    </style>
  </defs>
  <rect x="28" y="7" width="195" height="279" class="cls-1"/>
  <rect x="223" y="7" width="99" height="279" class="cls-2"/>
  <path d="M28.063,3.997 C79.042,3.997 130.021,3.996 181.000,3.997 C180.762,64.267 180.874,124.261 136.758,118.572 C122.787,99.072 63.547,184.256 28.052,201.000 C27.894,125.498 28.126,65.077 28.063,3.997 L28.063,3.997 L28.063,3.997 L28.063,3.997 Z" class="cls-3"/>
  <path d="M144.457,4.000 C203.196,4.000 261.936,4.000 320.675,4.000 C320.648,56.022 320.075,107.793 321.988,67.200 C274.477,114.568 247.501,152.767 222.034,158.867 C218.803,159.696 215.565,160.076 212.268,160.011 C210.619,159.978 208.955,159.834 207.270,159.580 C205.585,159.326 203.877,158.962 202.141,158.490 C195.199,156.603 187.794,152.988 179.500,147.823 C163.035,137.373 142.439,121.339 117.000,98.282 C141.904,107.962 143.396,56.133 144.457,4.000 L144.457,4.000 Z" class="cls-3"/>
  <rect x="49" y="25" width="8" height="8" class="cls-4"/>
  <rect x="65" y="25" width="8" height="8" class="cls-4"/>
  <rect x="81" y="25" width="8" height="8" class="cls-4"/>
  <rect x="28" y="4" width="294" height="282" class="cls-5"/>
  <circle cx="31.5" cy="205.5" r="25.5" class="cls-6"/>
  <circle cx="126.5" cy="112.5" r="25.5" class="cls-6"/>
  <circle cx="220.5" cy="170.5" r="25.5" class="cls-6"/>
  <circle cx="318.5" cy="74.5" r="25.5" class="cls-6"/>
  <path d="M50.008,189.015 L47.989,186.898 L107.992,127.985 L110.011,130.102 L50.008,189.015 Z" class="cls-7"/>
  <path d="M146.267,126.238 L147.717,123.471 L199.434,158.528 L197.984,161.296 L146.267,126.238 Z" class="cls-7"/>
  <path d="M239.052,154.069 L236.948,151.931 L298.948,90.931 L301.052,93.069 L239.052,154.069 Z" class="cls-7"/>
</svg>
