<?xml version="1.0" ?><!DOCTYPE svg  PUBLIC '-//W3C//DTD SVG 1.1//EN'  'http://www.w3.org/Graphics/SVG/1.1/DTD/svg11.dtd'><svg enable-background="new 0 0 128 128" id="Слой_1" version="1.1" viewBox="0 0 128 128" xml:space="preserve" xmlns="http://www.w3.org/2000/svg" xmlns:xlink="http://www.w3.org/1999/xlink"><g><g><g><circle cx="61.414" cy="73.739" fill="#E64A19" r="2.685"/></g><g><circle cx="76.63" cy="73.739" fill="#E64A19" r="2.685"/></g><g><circle cx="91.845" cy="73.739" fill="#E64A19" r="2.685"/></g></g></g><g><path d="M104.379,52.128H48.621c-3.294,0-5.974,2.68-5.974,5.974v33.174c0,3.294,2.68,5.974,5.974,5.974h40.052   l9.471,11.874c0.193,0.243,0.483,0.376,0.782,0.376c0.11,0,0.222-0.018,0.33-0.056c0.401-0.14,0.67-0.519,0.67-0.944V97.25h4.454   c3.294,0,5.974-2.68,5.974-5.974V58.102C110.354,54.808,107.673,52.128,104.379,52.128z M108.354,91.276   c0,2.191-1.783,3.974-3.974,3.974h-5.454c-0.552,0-1,0.448-1,1v9.393l-7.989-10.016c-0.19-0.238-0.478-0.376-0.782-0.376H48.621   c-2.191,0-3.974-1.783-3.974-3.974V58.102c0-2.191,1.783-3.974,3.974-3.974h55.759c2.191,0,3.974,1.783,3.974,3.974V91.276z" fill="#E64A19"/><path d="M36.064,70.626l-7.989,10.016V71.25c0-0.552-0.448-1-1-1h-2.463c-2.187,0-3.965-1.779-3.965-3.965V33.093   c0-2.186,1.779-3.965,3.965-3.965h55.776c2.187,0,3.965,1.779,3.965,3.965v16.035h2V33.093c0-3.289-2.676-5.965-5.965-5.965H24.612   c-3.289,0-5.965,2.676-5.965,5.965v33.192c0,3.289,2.676,5.965,5.965,5.965h1.463V83.5c0,0.425,0.269,0.804,0.67,0.944   c0.108,0.038,0.22,0.056,0.33,0.056c0.298,0,0.588-0.134,0.782-0.376l9.471-11.874h2.319v-2h-2.801   C36.542,70.25,36.254,70.389,36.064,70.626z" fill="#E64A19"/></g></svg>