<?xml version="1.0" ?><!DOCTYPE svg  PUBLIC '-//W3C//DTD SVG 1.1//EN'  'http://www.w3.org/Graphics/SVG/1.1/DTD/svg11.dtd'><svg enable-background="new 0 0 128 128" id="Слой_1" version="1.1" viewBox="0 0 128 128" xml:space="preserve" xmlns="http://www.w3.org/2000/svg" xmlns:xlink="http://www.w3.org/1999/xlink"><path d="M104,28H24c-3.309,0-6,2.691-6,6v60c0,3.309,2.691,6,6,6h80c3.309,0,6-2.691,6-6V34  C110,30.691,107.309,28,104,28z M108,34v60c0,0.635-0.162,1.227-0.427,1.761l-32.129-31.83l31.934-32.049  C107.767,32.497,108,33.22,108,34z M104,30c0.699,0,1.347,0.196,1.919,0.513L70.392,66.168c-1.708,1.714-3.98,2.66-6.4,2.664  c-0.005,0-0.01,0-0.015,0c-2.414,0-4.684-0.938-6.394-2.643L21.901,30.61C22.513,30.23,23.228,30,24,30H104z M20.437,95.78  C20.166,95.241,20,94.642,20,94V34c0-0.707,0.2-1.362,0.524-1.94l32,31.909L20.437,95.78z M24,98c-0.837,0-1.612-0.26-2.255-0.701  L53.94,65.381l2.23,2.224c2.088,2.082,4.859,3.227,7.806,3.227c0.006,0,0.012,0,0.018,0c2.954-0.005,5.729-1.16,7.814-3.252  l2.225-2.233l32.238,31.939C105.625,97.734,104.844,98,104,98H24z" fill="#E64A19"/></svg>