<?xml version="1.0" ?><!DOCTYPE svg  PUBLIC '-//W3C//DTD SVG 1.1//EN'  'http://www.w3.org/Graphics/SVG/1.1/DTD/svg11.dtd'><svg enable-background="new 0 0 128 128" id="Слой_1" version="1.1" viewBox="0 0 128 128" xml:space="preserve" xmlns="http://www.w3.org/2000/svg" xmlns:xlink="http://www.w3.org/1999/xlink"><g><path d="M107.163,90.396L97.73,78.933c-0.352-0.426-0.98-0.488-1.408-0.137l-0.289,0.238   c-0.593-0.847-1.501-2.401-2.018-4.568c-1.134-4.744-3-9.266-5.705-13.824c-1.249-2.104-6.068-7.381-8.657-10.215   c-0.534-0.586-0.951-1.042-1.186-1.306C77.237,47.733,75.617,47,73.781,47c-0.784,0-1.582,0.134-2.373,0.398   c-5.371,1.792-11.602,3.972-13.179,4.581c-2.242,0.866-3.103,2.531-3.43,3.776c-0.107,0.407-0.171,0.834-0.195,1.268L42.758,43.158   c-1.761-2.141-4.56-2.47-6.637-0.762c-1.064,0.877-1.621,2.015-1.608,3.292c0.011,1.141,0.479,2.305,1.34,3.35l17.639,22.406   c1.442,1.751,1.923,2.43,2.581,3.373l-8.666-5.415c-0.045-0.028-0.092-0.053-0.141-0.073c-2.789-1.179-5.143-0.311-6.216,2.231   c-0.028,0.065-0.049,0.135-0.062,0.205c-0.022,0.124-0.522,3.069,3.352,6.012l8.499,6.404c6.035,5.326,12.633,8.33,20.171,9.184   c1.61,0.182,2.819,1.082,3.501,1.732l-0.182,0.15c-0.204,0.169-0.334,0.412-0.359,0.676s0.055,0.527,0.223,0.732l9.433,11.464   c0.198,0.24,0.484,0.364,0.773,0.364c0.224,0,0.448-0.074,0.635-0.228l19.994-16.451c0.204-0.169,0.334-0.412,0.359-0.676   S107.331,90.602,107.163,90.396z M78.065,93.817c-0.869-0.875-2.521-2.179-4.832-2.44c-7.117-0.805-13.355-3.648-19.132-8.744   l-8.557-6.45c-2.518-1.913-2.61-3.594-2.597-3.972c0.58-1.264,1.387-1.413,1.95-1.413c0.449,0,0.959,0.115,1.518,0.344l8.827,5.515   c0.959,0.534,2.213,0.139,2.711-0.816c0.341-0.651,0.289-1.406-0.166-2.058c-0.699-1.004-1.205-1.729-2.738-3.592L37.41,47.784   c-0.572-0.695-0.892-1.446-0.897-2.114c-0.007-0.661,0.289-1.243,0.88-1.729c1.252-1.031,2.731-0.838,3.833,0.502l14.849,17.38   c0.356,0.416,0.98,0.468,1.403,0.117c0.42-0.353,0.479-0.979,0.13-1.402c-0.752-0.913-1.293-2.675-0.873-4.273   c0.303-1.155,1.049-1.969,2.216-2.42c1.558-0.602,7.744-2.766,13.091-4.55c1.893-0.631,3.695-0.239,4.93,1.153   c0.238,0.268,0.662,0.732,1.205,1.327c2.359,2.583,7.27,7.96,8.414,9.887c2.601,4.383,4.393,8.724,5.479,13.269   c0.609,2.552,1.708,4.389,2.415,5.378L83.447,89.39L78.065,93.817z M86.533,106.076l-8.162-9.92l0.216-0.178   c0.001,0,0.001-0.001,0.002-0.001L96.513,81.23c0.001-0.001,0.001-0.002,0.002-0.003l0.306-0.252l8.162,9.92L86.533,106.076z" fill="#E64A19"/><g><path d="M35.448,22.831c-0.827,0-1.5,0.673-1.5,1.5s0.673,1.5,1.5,1.5s1.5-0.673,1.5-1.5    S36.275,22.831,35.448,22.831z" fill="#E64A19"/><path d="M44.384,106.549c2.419,0,4.387-1.968,4.387-4.387s-1.968-4.387-4.387-4.387s-4.387,1.968-4.387,4.387    S41.965,106.549,44.384,106.549z M44.384,99.774c1.316,0,2.387,1.071,2.387,2.387s-1.071,2.387-2.387,2.387    c-1.316,0-2.387-1.071-2.387-2.387S43.067,99.774,44.384,99.774z" fill="#E64A19"/><path d="M48.266,23.331h-7.75c-0.552,0-1,0.448-1,1s0.448,1,1,1h7.75c0.552,0,1-0.448,1-1    S48.818,23.331,48.266,23.331z" fill="#E64A19"/><path d="M23.609,94.508v-63.7h41.548v14.483c0.664-0.228,1.334-0.456,2-0.683V24.5c0-3.584-2.916-6.5-6.5-6.5    H28.109c-3.584,0-6.5,2.916-6.5,6.5v79c0,3.584,2.916,6.5,6.5,6.5h32.548c3.584,0,6.5-2.916,6.5-6.5v-7.159    c-1.855-0.477-3.668-1.088-5.434-1.833H23.609z M23.609,24.5c0-2.481,2.019-4.5,4.5-4.5h32.548c2.481,0,4.5,2.019,4.5,4.5v4.308    H23.609V24.5z M65.158,103.5c0,2.481-2.019,4.5-4.5,4.5H28.109c-2.481,0-4.5-2.019-4.5-4.5v-6.992h41.548V103.5z" fill="#E64A19"/></g></g></svg>