<?xml version="1.0" ?><svg id="Layer_1" style="enable-background:new 0 0 512 512;" version="1.1" viewBox="0 0 512 512" xml:space="preserve" xmlns="http://www.w3.org/2000/svg" xmlns:xlink="http://www.w3.org/1999/xlink"><style type="text/css">
	.st0{fill:none;stroke:#01579B;stroke-width:12;stroke-linecap:round;stroke-linejoin:round;stroke-miterlimit:10;}
</style><g><path class="st0" d="M312.4,155.4c-1-5-2.2-9.9-2.8-14.8c-4.6-37,21.4-71,58.2-76.4c1-0.1,1.9-0.5,2.8-0.8c4.8,0,9.5,0,14.3,0   c5.4,1.4,11,2.4,16.3,4.2c29.7,10.7,48.7,40.9,45.2,71.3c-0.2,2-0.5,4-0.9,5.9"/><path class="st0" d="M429.5,177.8c-10.7,12.2-25.5,20.4-42.8,22.6c-24.3,3.1-44.6-5-60.9-23.2c-0.8-0.9-1.7-1.8-2.6-2.9   c-1,0.5-1.8,0.8-2.7,1.3c-33.2,18.6-66.5,37.2-99.8,55.6c-2.5,1.4-3.2,2.6-2.3,5.5c4,12.9,3.8,26-0.1,38.9   c-0.7,2.5-0.2,3.5,1.9,4.7c33.4,18.6,66.7,37.2,100,55.9c2.3,1.3,3.5,1.1,5.3-0.9c31.2-35.3,84-31.1,109.2,5.8"/><path class="st0" d="M444.3,361c0.2,0.7,0.4,1.4,0.6,2"/><path class="st0" d="M446.7,385.2c-2.7,30.5-25.9,58.3-58.6,62.7c-41.8,5.7-78.2-25.2-78.9-67.5c-0.1-6.8,1.7-13.6,3-20.4"/><path class="st0" d="M205.1,300.2c-33.3,38.5-92.5,30.5-114.8-14.8"/><path class="st0" d="M83.6,255.4c0.5-31.9,23.7-62.1,57.4-67.2c25.7-3.9,47.1,4.1,64.3,23.7c0.6,0.7,1.2,1.3,2,2.2"/></g></svg>