<?xml version="1.0" ?><!DOCTYPE svg  PUBLIC '-//W3C//DTD SVG 1.1//EN'  'http://www.w3.org/Graphics/SVG/1.1/DTD/svg11.dtd'><svg enable-background="new 0 0 128 128" id="Слой_1" version="1.1" viewBox="0 0 128 128" xml:space="preserve" xmlns="http://www.w3.org/2000/svg" xmlns:xlink="http://www.w3.org/1999/xlink"><path d="M101.912,89.471c-2.595,0-4.927,1.117-6.562,2.888L72.094,75.305c1.071-1.755,1.7-3.809,1.7-6.011  c0-2.836-1.027-5.433-2.724-7.449l25.274-25.273c1.529,1.222,3.464,1.958,5.569,1.958c4.93,0,8.94-4.011,8.94-8.941  s-4.011-8.941-8.94-8.941c-4.931,0-8.941,4.011-8.941,8.941c0,2.106,0.736,4.04,1.958,5.569L69.655,60.431  c-2.016-1.697-4.614-2.724-7.449-2.724c-1.098,0-2.156,0.163-3.163,0.45l-8.484-20.872c1.233-0.728,2.24-1.829,2.822-3.21  c0.709-1.679,0.721-3.533,0.035-5.221c-0.687-1.688-1.989-3.008-3.668-3.716c-0.846-0.357-1.737-0.538-2.649-0.538  c-2.75,0-5.219,1.637-6.287,4.171c-1.463,3.466,0.167,7.475,3.633,8.938c0.846,0.357,1.737,0.538,2.649,0.538  c0.553,0,1.089-0.083,1.611-0.209l8.47,20.836c-2.37,1.149-4.287,3.077-5.422,5.455l-25.66-9.307  c0.022-0.182,0.055-0.361,0.055-0.549c0-2.481-2.019-4.5-4.5-4.5s-4.5,2.019-4.5,4.5s2.019,4.5,4.5,4.5  c1.584,0,2.973-0.827,3.775-2.067l25.627,9.296c-0.274,0.987-0.432,2.022-0.432,3.095c0,3.269,1.366,6.22,3.551,8.329l-8.396,10.359  c-0.356-0.204-0.735-0.374-1.134-0.508c-0.649-0.218-1.323-0.328-2.003-0.328c-2.706,0-5.104,1.725-5.965,4.292  c-1.104,3.289,0.675,6.864,3.964,7.968c0.649,0.218,1.323,0.328,2.003,0.328c2.706,0,5.104-1.725,5.965-4.292  c0.534-1.594,0.417-3.3-0.332-4.805c-0.255-0.511-0.591-0.959-0.961-1.374l8.408-10.374c1.853,1.257,4.087,1.993,6.49,1.993  c3.469,0,6.579-1.54,8.704-3.964L94.163,93.97c-0.754,1.31-1.192,2.824-1.192,4.442c0,4.93,4.011,8.941,8.941,8.941  c4.93,0,8.94-4.011,8.94-8.941S106.842,89.471,101.912,89.471z M45.222,35.864c-2.449-1.034-3.602-3.868-2.568-6.318  c0.756-1.791,2.501-2.948,4.445-2.948c0.644,0,1.273,0.128,1.872,0.381c1.187,0.5,2.107,1.434,2.593,2.627  c0.484,1.193,0.476,2.503-0.024,3.69c-0.756,1.791-2.501,2.949-4.445,2.949C46.45,36.245,45.82,36.117,45.222,35.864z   M21.647,56.971c-1.379,0-2.5-1.122-2.5-2.5s1.121-2.5,2.5-2.5s2.5,1.122,2.5,2.5S23.026,56.971,21.647,56.971z M46.705,94.806  c-0.588,1.751-2.223,2.928-4.068,2.928c-0.463,0-0.923-0.075-1.366-0.225c-2.244-0.753-3.457-3.191-2.704-5.436  c0.588-1.751,2.223-2.928,4.068-2.928c0.463,0,0.923,0.075,1.366,0.225c1.087,0.364,1.967,1.131,2.478,2.157  C46.989,92.555,47.07,93.719,46.705,94.806z M101.912,22.647c3.827,0,6.94,3.114,6.94,6.941c0,3.827-3.113,6.941-6.94,6.941  s-6.941-3.114-6.941-6.941C94.971,25.761,98.085,22.647,101.912,22.647z M62.206,78.882c-5.287,0-9.589-4.301-9.589-9.588  c0-5.287,4.302-9.588,9.589-9.588s9.588,4.301,9.588,9.588C71.794,74.581,67.493,78.882,62.206,78.882z M101.912,105.353  c-3.827,0-6.941-3.114-6.941-6.941c0-3.827,3.114-6.941,6.941-6.941s6.94,3.114,6.94,6.941  C108.853,102.239,105.739,105.353,101.912,105.353z" fill="#E64A19"/></svg>