<svg xmlns="http://www.w3.org/2000/svg" xmlns:xlink="http://www.w3.org/1999/xlink" preserveAspectRatio="xMidYMid" width="156" height="38" viewBox="0 0 156 38">
  <defs>
    <style>
      .cls-1 {
        fill: #000;
      }

      .cls-1, .cls-3 {
        fill-rule: evenodd;
      }

      .cls-2 {
        fill: #01579b;
      }

      .cls-3 {
        fill: #fff;
      }
    </style>
  </defs>
  <path d="M152.816,22.970 L152.816,25.133 L144.576,25.133 L144.576,14.173 L152.640,14.173 L152.640,16.353 L147.072,16.353 L147.072,18.611 L152.080,18.611 L152.080,20.696 L147.072,20.696 L147.072,22.970 L152.816,22.970 ZM140.048,25.133 L137.568,21.637 L135.840,21.637 L135.840,25.133 L133.344,25.133 L133.344,14.173 L137.584,14.173 C139.322,14.173 140.562,14.461 141.304,15.035 C142.045,15.610 142.416,16.536 142.416,17.811 C142.416,19.567 141.706,20.701 140.288,21.213 L143.120,25.133 L140.048,25.133 ZM139.392,16.603 C139.072,16.384 138.512,16.274 137.712,16.274 L135.840,16.274 L135.840,19.520 L137.664,19.520 C138.517,19.520 139.098,19.384 139.408,19.112 C139.717,18.841 139.872,18.409 139.872,17.819 C139.872,17.228 139.712,16.823 139.392,16.603 ZM125.760,25.243 C124.106,25.243 122.714,24.702 121.584,23.620 C120.453,22.538 119.888,21.193 119.888,19.583 C119.888,17.973 120.453,16.627 121.584,15.545 C122.714,14.463 124.106,13.922 125.760,13.922 C127.413,13.922 128.805,14.463 129.936,15.545 C131.066,16.627 131.632,17.973 131.632,19.583 C131.632,21.193 131.066,22.538 129.936,23.620 C128.805,24.702 127.413,25.243 125.760,25.243 ZM128.128,17.090 C127.488,16.400 126.701,16.055 125.768,16.055 C124.834,16.055 124.048,16.400 123.408,17.090 C122.768,17.779 122.448,18.613 122.448,19.591 C122.448,20.568 122.768,21.399 123.408,22.084 C124.048,22.768 124.834,23.111 125.768,23.111 C126.701,23.111 127.488,22.768 128.128,22.084 C128.768,21.399 129.088,20.568 129.088,19.591 C129.088,18.613 128.768,17.779 128.128,17.090 ZM116.240,25.133 L113.744,25.133 L113.744,16.290 L110.576,16.290 L110.576,14.173 L119.408,14.173 L119.408,16.290 L116.240,16.290 L116.240,25.133 ZM106.520,18.556 C107.582,18.812 108.406,19.196 108.992,19.708 C109.579,20.220 109.872,20.968 109.872,21.950 C109.872,22.933 109.496,23.730 108.744,24.342 C107.992,24.953 107.003,25.259 105.776,25.259 C104.006,25.259 102.411,24.616 100.992,23.330 L102.480,21.543 C103.686,22.578 104.800,23.095 105.824,23.095 C106.283,23.095 106.643,22.998 106.904,22.805 C107.166,22.612 107.296,22.350 107.296,22.021 C107.296,21.692 107.158,21.430 106.880,21.237 C106.603,21.044 106.054,20.848 105.232,20.649 C103.931,20.346 102.979,19.951 102.376,19.465 C101.774,18.979 101.472,18.216 101.472,17.176 C101.472,16.136 101.854,15.333 102.616,14.769 C103.379,14.204 104.331,13.922 105.472,13.922 C106.219,13.922 106.966,14.048 107.712,14.299 C108.459,14.549 109.110,14.905 109.664,15.365 L108.400,17.152 C107.430,16.431 106.427,16.070 105.392,16.070 C104.976,16.070 104.648,16.167 104.408,16.360 C104.168,16.554 104.048,16.810 104.048,17.129 C104.048,17.448 104.195,17.701 104.488,17.889 C104.782,18.077 105.459,18.300 106.520,18.556 ZM93.792,25.133 L89.968,25.133 L89.968,14.173 L93.920,14.173 C95.915,14.173 97.445,14.651 98.512,15.608 C99.579,16.564 100.112,17.895 100.112,19.598 C100.112,21.302 99.592,22.651 98.552,23.644 C97.512,24.637 95.925,25.133 93.792,25.133 ZM96.680,17.176 C96.067,16.596 95.125,16.306 93.856,16.306 L92.464,16.306 L92.464,22.970 L94.048,22.970 C95.189,22.970 96.067,22.687 96.680,22.123 C97.293,21.558 97.600,20.738 97.600,19.661 C97.600,18.585 97.293,17.756 96.680,17.176 ZM82.992,25.243 C81.595,25.243 80.446,24.815 79.544,23.957 C78.643,23.100 78.192,21.882 78.192,20.304 L78.192,14.173 L80.688,14.173 L80.688,20.226 C80.688,21.104 80.896,21.796 81.312,22.303 C81.728,22.810 82.288,23.064 82.992,23.064 C83.696,23.064 84.254,22.810 84.664,22.303 C85.075,21.796 85.280,21.104 85.280,20.226 L85.280,14.173 L87.776,14.173 L87.776,20.304 C87.776,21.893 87.328,23.113 86.432,23.965 C85.536,24.817 84.390,25.243 82.992,25.243 ZM70.768,25.243 C69.115,25.243 67.723,24.702 66.592,23.620 C65.462,22.538 64.896,21.193 64.896,19.583 C64.896,17.973 65.462,16.627 66.592,15.545 C67.723,14.463 69.115,13.922 70.768,13.922 C72.422,13.922 73.814,14.463 74.944,15.545 C76.075,16.627 76.640,17.973 76.640,19.583 C76.640,21.193 76.075,22.538 74.944,23.620 C73.814,24.702 72.422,25.243 70.768,25.243 ZM73.136,17.090 C72.496,16.400 71.710,16.055 70.776,16.055 C69.843,16.055 69.056,16.400 68.416,17.090 C67.776,17.779 67.456,18.613 67.456,19.591 C67.456,20.568 67.776,21.399 68.416,22.084 C69.056,22.768 69.843,23.111 70.776,23.111 C71.710,23.111 72.496,22.768 73.136,22.084 C73.776,21.399 74.096,20.568 74.096,19.591 C74.096,18.613 73.776,17.779 73.136,17.090 ZM57.153,14.173 L59.649,14.173 L59.649,22.954 L64.417,22.954 L64.417,25.133 L57.153,25.133 L57.153,14.173 ZM51.153,16.259 C50.214,16.259 49.411,16.559 48.745,17.160 C48.078,17.761 47.745,18.571 47.745,19.591 C47.745,20.610 48.059,21.428 48.689,22.044 C49.318,22.661 50.081,22.970 50.977,22.970 C52.203,22.970 53.206,22.494 53.985,21.543 L55.585,23.158 C54.315,24.559 52.819,25.259 51.097,25.259 C49.374,25.259 47.955,24.726 46.841,23.659 C45.726,22.593 45.169,21.247 45.169,19.622 C45.169,17.997 45.737,16.640 46.873,15.553 C48.009,14.466 49.398,13.922 51.041,13.922 C52.875,13.922 54.411,14.607 55.649,15.976 L54.097,17.701 C53.307,16.739 52.326,16.259 51.153,16.259 Z" class="cls-1"/>
  <circle cx="19" cy="19" r="19" class="cls-2"/>
  <g>
    <path d="M19.513,24.320 C18.358,24.997 17.197,25.474 15.835,25.474 C14.105,25.474 12.634,24.890 11.422,23.723 C10.203,22.562 9.593,21.153 9.593,19.496 C9.593,17.846 10.203,16.441 11.422,15.280 C12.634,14.112 14.105,13.528 15.835,13.528 C17.231,13.528 18.462,13.952 19.584,14.722 C21.403,15.970 22.661,15.011 20.667,13.607 C19.218,12.586 17.647,12.002 15.835,12.002 C13.676,12.002 11.827,12.733 10.288,14.194 C8.762,15.668 7.999,17.435 7.999,19.496 C7.999,21.564 8.762,23.335 10.288,24.809 C11.827,26.270 13.676,27.000 15.835,27.000 C17.619,27.000 19.188,26.454 20.606,25.445 C21.161,25.050 20.402,23.799 19.513,24.320 Z" class="cls-3"/>
    <path d="M23.462,16.530 C23.026,16.530 22.651,16.380 22.338,16.079 C22.025,15.786 21.868,15.434 21.868,15.023 C21.868,14.599 22.025,14.240 22.338,13.947 C22.651,13.647 23.026,13.497 23.462,13.497 C23.905,13.497 24.283,13.647 24.596,13.947 C24.841,14.240 24.984,14.521 25.025,14.788 L26.925,14.798 C26.230,12.939 25.076,12.006 23.462,12.000 C22.590,12.000 21.848,12.293 21.235,12.880 C20.608,13.474 20.295,14.188 20.295,15.023 C20.295,15.851 20.608,16.562 21.235,17.156 C21.262,17.182 21.317,17.231 21.398,17.302 C21.991,17.785 22.679,18.026 23.462,18.026 C24.558,18.026 25.495,18.395 26.271,19.132 C27.041,19.856 27.426,20.736 27.426,21.773 C27.426,22.798 27.041,23.671 26.271,24.395 C25.495,25.133 24.558,25.501 23.462,25.501 C22.386,25.501 21.463,25.142 20.693,24.425 C19.924,23.714 19.525,22.775 19.498,21.607 L17.935,21.607 C17.962,23.199 18.514,24.493 19.590,25.491 C20.659,26.496 21.950,26.998 23.462,26.998 C24.987,26.998 26.292,26.486 27.375,25.462 C28.458,24.451 28.999,23.221 28.999,21.773 C28.999,20.678 28.665,19.683 27.998,18.790 C27.351,17.903 26.499,17.270 25.444,16.892 C24.804,16.650 24.143,16.530 23.462,16.530 L23.462,16.530 Z" class="cls-3"/>
  </g>
</svg>
