<svg xmlns="http://www.w3.org/2000/svg" xmlns:xlink="http://www.w3.org/1999/xlink" preserveAspectRatio="xMidYMid" width="156" height="38" viewBox="0 0 156 38">
  <defs>
    <style>
      .cls-1 {
        fill: #252525;
      }

      .cls-1, .cls-3 {
        fill-rule: evenodd;
      }

      .cls-2 {
        fill: #155d8c;
      }

      .cls-3 {
        fill: #fff;
      }
    </style>
  </defs>
  <path d="M155.844,22.290 L155.844,24.453 L147.604,24.453 L147.604,13.493 L155.668,13.493 L155.668,15.673 L150.100,15.673 L150.100,17.931 L155.108,17.931 L155.108,20.016 L150.100,20.016 L150.100,22.290 L155.844,22.290 ZM142.676,24.453 L140.196,20.957 L138.468,20.957 L138.468,24.453 L135.972,24.453 L135.972,13.493 L140.212,13.493 C141.950,13.493 143.190,13.781 143.932,14.355 C144.673,14.930 145.044,15.856 145.044,17.131 C145.044,18.887 144.334,20.021 142.916,20.533 L145.748,24.453 L142.676,24.453 ZM142.020,15.923 C141.700,15.704 141.140,15.594 140.340,15.594 L138.468,15.594 L138.468,18.840 L140.292,18.840 C141.145,18.840 141.726,18.704 142.036,18.432 C142.345,18.161 142.500,17.729 142.500,17.139 C142.500,16.548 142.340,16.143 142.020,15.923 ZM127.988,24.563 C126.335,24.563 124.943,24.022 123.812,22.940 C122.681,21.858 122.116,20.513 122.116,18.903 C122.116,17.293 122.681,15.947 123.812,14.865 C124.943,13.783 126.335,13.242 127.988,13.242 C129.641,13.242 131.033,13.783 132.164,14.865 C133.295,15.947 133.860,17.293 133.860,18.903 C133.860,20.513 133.295,21.858 132.164,22.940 C131.033,24.022 129.641,24.563 127.988,24.563 ZM130.356,16.410 C129.716,15.720 128.929,15.375 127.996,15.375 C127.063,15.375 126.276,15.720 125.636,16.410 C124.996,17.099 124.676,17.933 124.676,18.911 C124.676,19.888 124.996,20.719 125.636,21.404 C126.276,22.088 127.063,22.431 127.996,22.431 C128.929,22.431 129.716,22.088 130.356,21.404 C130.996,20.719 131.316,19.888 131.316,18.911 C131.316,17.933 130.996,17.099 130.356,16.410 ZM118.068,24.453 L115.572,24.453 L115.572,15.610 L112.404,15.610 L112.404,13.493 L121.236,13.493 L121.236,15.610 L118.068,15.610 L118.068,24.453 ZM107.948,17.876 C109.010,18.132 109.834,18.516 110.420,19.028 C111.007,19.540 111.300,20.288 111.300,21.270 C111.300,22.253 110.924,23.050 110.172,23.662 C109.420,24.273 108.431,24.579 107.204,24.579 C105.434,24.579 103.839,23.936 102.420,22.650 L103.908,20.863 C105.114,21.898 106.228,22.415 107.252,22.415 C107.711,22.415 108.071,22.318 108.332,22.125 C108.594,21.932 108.724,21.670 108.724,21.341 C108.724,21.012 108.586,20.750 108.308,20.557 C108.031,20.364 107.482,20.168 106.660,19.969 C105.359,19.666 104.407,19.271 103.804,18.785 C103.202,18.299 102.900,17.536 102.900,16.496 C102.900,15.456 103.282,14.653 104.044,14.089 C104.807,13.524 105.759,13.242 106.900,13.242 C107.647,13.242 108.394,13.368 109.140,13.619 C109.887,13.869 110.538,14.225 111.092,14.685 L109.828,16.472 C108.858,15.751 107.855,15.390 106.820,15.390 C106.404,15.390 106.076,15.487 105.836,15.680 C105.596,15.874 105.476,16.130 105.476,16.449 C105.476,16.768 105.623,17.021 105.916,17.209 C106.210,17.397 106.887,17.620 107.948,17.876 ZM94.820,24.453 L90.996,24.453 L90.996,13.493 L94.948,13.493 C96.943,13.493 98.474,13.971 99.540,14.928 C100.607,15.884 101.140,17.215 101.140,18.918 C101.140,20.622 100.620,21.971 99.580,22.964 C98.540,23.957 96.954,24.453 94.820,24.453 ZM97.708,16.496 C97.095,15.916 96.154,15.626 94.884,15.626 L93.492,15.626 L93.492,22.290 L95.076,22.290 C96.218,22.290 97.095,22.007 97.708,21.443 C98.322,20.878 98.628,20.058 98.628,18.981 C98.628,17.905 98.322,17.076 97.708,16.496 ZM83.620,24.563 C82.223,24.563 81.074,24.135 80.172,23.277 C79.271,22.420 78.820,21.202 78.820,19.624 L78.820,13.493 L81.316,13.493 L81.316,19.546 C81.316,20.424 81.524,21.116 81.940,21.623 C82.356,22.130 82.916,22.384 83.620,22.384 C84.324,22.384 84.882,22.130 85.292,21.623 C85.703,21.116 85.908,20.424 85.908,19.546 L85.908,13.493 L88.404,13.493 L88.404,19.624 C88.404,21.213 87.956,22.433 87.060,23.285 C86.164,24.137 85.018,24.563 83.620,24.563 ZM70.997,24.563 C69.343,24.563 67.951,24.022 66.821,22.940 C65.690,21.858 65.125,20.513 65.125,18.903 C65.125,17.293 65.690,15.947 66.821,14.865 C67.951,13.783 69.343,13.242 70.997,13.242 C72.650,13.242 74.042,13.783 75.173,14.865 C76.303,15.947 76.869,17.293 76.869,18.903 C76.869,20.513 76.303,21.858 75.173,22.940 C74.042,24.022 72.650,24.563 70.997,24.563 ZM73.365,16.410 C72.725,15.720 71.938,15.375 71.005,15.375 C70.071,15.375 69.285,15.720 68.645,16.410 C68.005,17.099 67.685,17.933 67.685,18.911 C67.685,19.888 68.005,20.719 68.645,21.404 C69.285,22.088 70.071,22.431 71.005,22.431 C71.938,22.431 72.725,22.088 73.365,21.404 C74.005,20.719 74.325,19.888 74.325,18.911 C74.325,17.933 74.005,17.099 73.365,16.410 ZM56.981,13.493 L59.477,13.493 L59.477,22.274 L64.245,22.274 L64.245,24.453 L56.981,24.453 L56.981,13.493 ZM50.581,15.579 C49.642,15.579 48.839,15.879 48.173,16.480 C47.506,17.081 47.173,17.891 47.173,18.911 C47.173,19.930 47.487,20.748 48.117,21.364 C48.746,21.981 49.509,22.290 50.405,22.290 C51.631,22.290 52.634,21.814 53.413,20.863 L55.013,22.478 C53.743,23.879 52.247,24.579 50.525,24.579 C48.802,24.579 47.383,24.046 46.269,22.979 C45.154,21.913 44.597,20.567 44.597,18.942 C44.597,17.317 45.165,15.960 46.301,14.873 C47.437,13.786 48.826,13.242 50.469,13.242 C52.303,13.242 53.839,13.927 55.077,15.296 L53.525,17.021 C52.735,16.059 51.754,15.579 50.581,15.579 Z" class="cls-1"/>
  <circle cx="19" cy="19" r="19" class="cls-2"/>
  <g>
    <path d="M19.513,24.320 C18.358,24.997 17.197,25.474 15.835,25.474 C14.105,25.474 12.634,24.890 11.422,23.723 C10.203,22.562 9.593,21.153 9.593,19.496 C9.593,17.846 10.203,16.441 11.422,15.280 C12.634,14.112 14.105,13.528 15.835,13.528 C17.231,13.528 18.462,13.952 19.584,14.722 C21.403,15.970 22.661,15.011 20.667,13.607 C19.218,12.586 17.647,12.002 15.835,12.002 C13.676,12.002 11.827,12.733 10.288,14.194 C8.762,15.668 7.999,17.435 7.999,19.496 C7.999,21.564 8.762,23.335 10.288,24.809 C11.827,26.270 13.676,27.000 15.835,27.000 C17.619,27.000 19.188,26.454 20.606,25.445 C21.161,25.050 20.402,23.799 19.513,24.320 Z" class="cls-3"/>
    <path d="M23.462,16.530 C23.026,16.530 22.651,16.380 22.338,16.079 C22.025,15.786 21.868,15.434 21.868,15.023 C21.868,14.599 22.025,14.240 22.338,13.947 C22.651,13.647 23.026,13.497 23.462,13.497 C23.905,13.497 24.283,13.647 24.596,13.947 C24.841,14.240 24.984,14.521 25.025,14.788 L26.925,14.798 C26.230,12.939 25.076,12.006 23.462,12.000 C22.590,12.000 21.848,12.293 21.235,12.880 C20.608,13.474 20.295,14.188 20.295,15.023 C20.295,15.851 20.608,16.562 21.235,17.156 C21.262,17.182 21.317,17.231 21.398,17.302 C21.991,17.785 22.679,18.026 23.462,18.026 C24.558,18.026 25.495,18.395 26.271,19.132 C27.041,19.856 27.426,20.736 27.426,21.773 C27.426,22.798 27.041,23.671 26.271,24.395 C25.495,25.133 24.558,25.501 23.462,25.501 C22.386,25.501 21.463,25.142 20.693,24.425 C19.924,23.714 19.525,22.775 19.498,21.607 L17.935,21.607 C17.962,23.199 18.514,24.493 19.590,25.491 C20.659,26.496 21.950,26.998 23.462,26.998 C24.987,26.998 26.292,26.486 27.375,25.462 C28.458,24.451 28.999,23.221 28.999,21.773 C28.999,20.678 28.665,19.683 27.998,18.790 C27.351,17.903 26.499,17.270 25.444,16.892 C24.804,16.650 24.143,16.530 23.462,16.530 L23.462,16.530 Z" class="cls-3"/>
  </g>
</svg>
